# xmcd
#
# Track frame offsets:
#	182
#	10082
#	23760
#	39037
#	53260
#	72970
#	88622
#	103612
#	117837
#	130485
#	147515
#
# Disc length: 2187 seconds
#
# Revision: 10
# Processed by: cddbd v1.5.2PL0 Copyright (c) Steve Scherf et al.
# Submitted via: EasyCDDAExtractor 15.2.5.1
#
DISCID=8508890b
DTITLE=Clay Walker - If I Could Make A Living
DYEAR=1994
DGENRE=Country
TTITLE0=If I Could Make A Living
TTITLE1=The Melrose Avenue Cinema Two
TTITLE2=My Heart Will Never Know
TTITLE3=What Do You Want For Nothin'
TTITLE4=This Woman And This Man
TTITLE5=Boogie Till The Cows Come Home
TTITLE6=Heartache Highway
TTITLE7=You Make It Look So Easy
TTITLE8=Lose Your Memory
TTITLE9=Money Ain't Everything
TTITLE10=Down By The Riverside
EXTD=
EXTT0=
EXTT1=
EXTT2=
EXTT3=
EXTT4=
EXTT5=
EXTT6=
EXTT7=
EXTT8=
EXTT9=
EXTT10=
PLAYORDER=
